<svg width="141" height="32" viewBox="0 0 141 32" fill="none" xmlns="http://www.w3.org/2000/svg">
<path fill-rule="evenodd" clip-rule="evenodd" d="M45.9703 28.3768C45.9611 28.2765 45.9564 28.1748 45.9564 28.072V3.43035C45.9564 1.6102 47.4319 0.134674 49.2521 0.134674C51.0722 0.134674 52.5478 1.6102 52.5478 3.43035V25.3654H65.1645C66.9966 25.3654 68.4818 26.8506 68.4818 28.6827C68.4818 30.5147 66.9966 31.9999 65.1645 31.9999H49.2737C47.4416 31.9999 45.9564 30.5147 45.9564 28.6827C45.9564 28.5796 45.9611 28.4776 45.9703 28.3768ZM93.9763 31.3677C92.1562 31.3677 90.6807 29.8922 90.6807 28.072V6.99029L86.047 6.99029C84.2149 6.99029 82.7297 5.5051 82.7297 3.67303C82.7297 1.84095 84.2149 0.355766 86.047 0.355766L92.7871 0.355767C93.156 0.21298 93.557 0.134674 93.9763 0.134674C94.3956 0.134674 94.7967 0.21298 95.1656 0.355767L101.938 0.355767C103.77 0.355767 105.255 1.84096 105.255 3.67303C105.255 5.5051 103.77 6.99029 101.938 6.99029L97.272 6.99029V28.072C97.272 29.8922 95.7965 31.3677 93.9763 31.3677ZM75.0928 31.3677C73.2726 31.3677 71.7971 29.8922 71.7971 28.0721V3.43038C71.7971 1.61023 73.2726 0.134705 75.0928 0.134705C76.9129 0.134705 78.3885 1.61023 78.3885 3.43038V28.0721C78.3885 29.8922 76.9129 31.3677 75.0928 31.3677ZM110.215 1.70118C111.502 0.405707 113.589 0.40571 114.876 1.70118L124.781 11.6707L134.377 2.01177C135.664 0.716297 137.751 0.716296 139.038 2.01177C140.325 3.30724 140.325 5.40761 139.038 6.70308L127.771 18.0439C127.67 18.1455 127.564 18.2391 127.454 18.3248V28.2087C127.454 30.0289 125.978 31.5044 124.158 31.5044C122.338 31.5044 120.863 30.0289 120.863 28.2087V17.1093L110.215 6.39249C108.928 5.09702 108.928 2.99665 110.215 1.70118Z" fill="#1C1B1F"/>
<path fill-rule="evenodd" clip-rule="evenodd" d="M30.0162 30.8753C28.3908 31.6998 26.4116 31.047 25.5957 29.4173L16.0394 10.3299L6.2369 29.909C5.42096 31.5387 3.44184 32.1915 1.81642 31.367C0.190997 30.5425 -0.46522 28.553 0.35072 26.9233L12.6754 2.30652C12.9564 1.74517 13.3754 1.29973 13.8705 0.99064C14.1165 0.739828 14.4066 0.524302 14.7368 0.35684C16.3622 -0.467639 18.3413 0.185141 19.1572 1.81487L31.4819 26.4316C32.2978 28.0613 31.6416 30.0509 30.0162 30.8753ZM35.0241 28.0722C35.0241 29.8923 36.4996 31.3679 38.3198 31.3679C40.1399 31.3679 41.6154 29.8923 41.6154 28.0722V3.4305C41.6154 1.61035 40.1399 0.134828 38.3198 0.134828C36.4996 0.134828 35.0241 1.61035 35.0241 3.43051V28.0722ZM16.0002 24.0092C17.6571 24.0092 19.0002 22.6656 19.0002 21.0081C19.0002 19.3506 17.6571 18.0069 16.0002 18.0069C14.3434 18.0069 13.0002 19.3506 13.0002 21.0081C13.0002 22.6656 14.3434 24.0092 16.0002 24.0092Z" fill="#F27171"/>
</svg>
